Coordinates
version=1
nRows=7
nColumns=40
inDegrees=yes

Units are S.I. units (second, meters, Newtons, ...)
If the header above contains a line with 'inDegrees', this indicates whether rotational values are in degrees (yes) or radians (no).

endheader
time	pelvis_tilt	pelvis_list	pelvis_rotation	pelvis_tx	pelvis_ty	pelvis_tz	hip_flexion_r	hip_adduction_r	hip_rotation_r	knee_angle_r	knee_angle_r_beta	ankle_angle_r	subtalar_angle_r	mtp_angle_r	hip_flexion_l	hip_adduction_l	hip_rotation_l	knee_angle_l	knee_angle_l_beta	ankle_angle_l	subtalar_angle_l	mtp_angle_l	lumbar_extension	lumbar_bending	lumbar_rotation	arm_flex_r	arm_add_r	arm_rot_r	elbow_flex_r	pro_sup_r	wrist_flex_r	wrist_dev_r	arm_flex_l	arm_add_l	arm_rot_l	elbow_flex_l	pro_sup_l	wrist_flex_l	wrist_dev_l
      7.78300000	      1.91359471	      9.34263521	     -3.41217511	      0.07399230	      1.32207050	      0.01262454	     35.53520920	    -15.69886757	     -3.38744426	     78.51891775	      1.37041364	      8.21024354	     -9.39874439	      0.00000000	     54.62717439	     -3.02557820	     -8.19580349	     78.40527107	      1.36843013	      9.66285259	     -6.78541013	      0.00000000	    -59.36809556	      1.83251650	     -6.48169793	     46.68830294	      2.28445836	    -11.11888338	     50.53452019	     40.59811586	      0.00000000	      0.00000000	     52.39532850	     17.31012928	     -9.20053567	     33.93198192	      6.28200513	      0.00000000	      0.00000000
      7.80000000	      2.09136044	      8.73433052	     -3.94603099	      0.07395887	      1.32259107	      0.01269584	     37.62586405	    -14.94424345	     -2.60352414	     83.00052379	      1.44863242	      8.83312830	     -8.99607333	      0.00000000	     51.77798629	     -3.61506079	     -8.45251557	     73.91003391	      1.28997344	      8.42572749	     -6.06471843	      0.00000000	    -59.56463873	      1.84057904	     -5.73861531	     46.87938064	      2.39137881	    -11.23948642	     50.32638906	     40.74119776	      0.00000000	      0.00000000	     52.43693355	     17.36164899	     -9.61838511	     33.93440995	      6.57732965	      0.00000000	      0.00000000
      7.81700000	      2.12528887	      7.99186274	     -4.34825471	      0.07389395	      1.32292953	      0.01262399	     39.92241235	    -14.22183112	     -2.09250367	     87.16553117	      1.52132551	      9.30352211	     -8.55174237	      0.00000000	     48.84516380	     -4.17277970	     -8.71644825	     69.37615509	      1.21084233	      6.88993535	     -5.73934838	      0.00000000	    -59.67962107	      2.02584480	     -4.98474342	     47.13839396	      2.48830125	    -11.20601032	     50.02805752	     40.92258737	      0.00000000	      0.00000000	     52.47871597	     17.35930675	    -10.11452984	     33.98175758	      6.96900656	      0.00000000	      0.00000000
      7.83300000	      2.05472665	      7.22555080	     -4.78329913	      0.07386769	      1.32301775	      0.01262222	     42.46793064	    -13.52348647	     -1.62033123	     91.09217930	      1.58985845	      9.66845996	     -8.00936216	      0.00000000	     45.78745929	     -4.71942091	     -9.05287538	     64.75338960	      1.13015985	      5.19204280	     -5.63541060	      0.00000000	    -59.70368832	      2.19547380	     -4.22212877	     47.39649886	      2.60692901	    -11.08945388	     49.66821445	     41.11631697	      0.00000000	      0.00000000	     52.46870916	     17.33367605	    -10.58966966	     34.02869769	      7.17021621	      0.00000000	      0.00000000
      7.85000000	      1.93712492	      6.58371960	     -5.33066343	      0.07373277	      1.32293732	      0.01273603	     45.18228235	    -12.89801897	     -1.04826210	     94.66814659	      1.65227085	      9.93232548	     -7.50791626	      0.00000000	     42.79337033	     -5.17227550	     -9.42647655	     60.43656402	      1.05481703	      3.59041366	     -5.52520911	      0.00000000	    -59.65869292	      2.22999420	     -3.52240770	     47.62926517	      2.69810198	    -10.88647971	     49.31324084	     41.32552103	      0.00000000	      0.00000000	     52.42986639	     17.30020758	    -11.14709005	     34.08118013	      7.36488966	      0.00000000	      0.00000000
      7.86700000	      1.80283396	      6.10565335	     -6.06912794	      0.07343560	      1.32268084	      0.01314538	     48.08304529	    -12.33036269	     -0.32936388	     97.93411851	      1.70927282	     10.06650606	     -7.10056897	      0.00000000	     39.81969878	     -5.49193205	     -9.78110975	     56.49044658	      0.98594429	      2.41586655	     -5.38310480	      0.00000000	    -59.54912212	      2.05712691	     -2.87884631	     47.84492137	      2.77012270	    -10.58475632	     48.91787955	     41.56726361	      0.00000000	      0.00000000	     52.31001179	     17.26307871	    -11.69681425	     34.18411648	      7.21477936	      0.00000000	      0.00000000
      7.88300000	      1.58763787	      5.56386153	     -6.76157369	      0.07301624	      1.32222191	      0.01365233	     51.07989107	    -11.74027865	      0.19872383	    100.80564935	      1.75939049	     10.16817765	     -6.87540354	      0.00000000	     37.00925814	     -5.79445010	     -9.89258265	     52.92662093	      0.92374380	      1.25360960	     -5.19299137	      0.00000000	    -59.35076499	      1.98713261	     -2.18848056	     48.01245316	      2.78792962	    -10.16461010	     48.54723044	     41.77342028	      0.00000000	      0.00000000	     52.15188523	     17.23764631	    -12.26394294	     34.29001187	      7.00819874	      0.00000000	      0.00000000
